<svg width="91.000000" height="28.000000" viewBox="0 0 91 28" fill="none" xmlns="http://www.w3.org/2000/svg" xmlns:xlink="http://www.w3.org/1999/xlink">
	<desc>
			Created with Pixso.
	</desc>
	<defs>
		<clipPath id="clip1_5">
			<rect id="box 1" rx="0.000000" width="26.000000" height="26.000000" transform="translate(0.500000 0.500000)" fill="white" fill-opacity="0"/>
		</clipPath>
	</defs>
	<rect id="box 1" rx="0.000000" width="26.000000" height="26.000000" transform="translate(0.500000 0.500000)" fill="#FFFFFF" fill-opacity="0"/>
	<g clip-path="url(#clip1_5)">
		<path id="Vector" d="M26.99 6.65C26.96 6.36 26.78 6.11 26.51 5.98L13.85 0.07C13.63 -0.03 13.36 -0.03 13.14 0.07L0.48 5.98C0.21 6.11 0.03 6.36 0 6.65C0 6.66 0 6.74 0 6.75L0 21.09C0 21.43 0.21 21.74 0.53 21.87L13.18 26.93C13.28 26.98 13.39 27 13.5 27C13.6 27 13.71 26.98 13.81 26.93L26.46 21.87C26.78 21.74 27 21.43 27 21.09L27 6.75C27 6.74 26.99 6.66 26.99 6.65ZM13.5 1.77L24.03 6.69L19.97 8.31L9.24 3.76L13.5 1.77ZM7.18 4.72L17.75 9.2L13.5 10.9L2.96 6.69L7.18 4.72ZM1.68 7.99L12.65 12.38L12.65 24.91L1.68 20.52L1.68 7.99ZM14.34 24.91L14.34 12.38L25.31 7.99L25.31 20.52L14.34 24.91Z" fill="#0A143A" fill-opacity="1.000000" fill-rule="nonzero"/>
	</g>
	<path id="Abito" d="M60.57 20.52Q61.87 18.82 61.87 15.77L61.87 15.58Q61.87 12.49 60.55 10.79Q60.02 10.09 59.32 9.68Q58.29 9.08 56.91 9.08Q55.8 9.08 54.94 9.54Q54.32 9.88 53.83 10.45L53.83 4L50.44 4L50.44 22L53.49 22L53.64 20.65Q54.21 21.38 54.96 21.77Q55.83 22.23 56.94 22.23Q58.35 22.23 59.38 21.6Q60.06 21.2 60.57 20.52ZM64.13 5.2Q63.93 5.56 63.93 6.03Q63.93 6.51 64.13 6.88Q64.26 7.11 64.45 7.3Q64.55 7.39 64.67 7.47Q65.14 7.79 65.83 7.79Q66.52 7.79 66.99 7.47Q67.11 7.39 67.21 7.3Q67.41 7.11 67.53 6.88Q67.73 6.51 67.73 6.03Q67.73 5.57 67.54 5.21Q67.42 4.97 67.21 4.78Q67.13 4.7 67.03 4.63Q66.55 4.29 65.83 4.29Q65.08 4.29 64.6 4.65Q64.52 4.71 64.44 4.78Q64.25 4.97 64.13 5.2ZM37.99 18.48L44.15 18.48L45.33 22L49.07 22L42.69 4.93L39.43 4.93L33.08 22L36.82 22L37.99 18.48ZM74.37 9.32L74.37 6.2L70.99 6.2L70.99 9.32L69.14 9.32L69.14 11.8L70.99 11.8L70.99 18.63Q71.02 20.45 71.95 21.35Q72.86 22.23 74.62 22.23Q75.3 22.23 75.95 22.1Q76.31 22.03 76.67 21.92L76.67 19.36Q76.24 19.44 75.67 19.44Q74.91 19.44 74.64 19.14Q74.37 18.83 74.37 18.13L74.37 11.8L76.54 11.8L76.54 9.32L74.37 9.32ZM78.28 12.17Q77.55 13.65 77.55 15.54L77.55 15.69Q77.55 18.4 78.86 20.09Q79.01 20.29 79.18 20.47Q79.67 20.99 80.25 21.36Q81.63 22.23 83.56 22.23Q85.49 22.23 86.86 21.36Q87.45 20.99 87.93 20.47Q88.18 20.19 88.4 19.89Q89.56 18.25 89.56 15.78L89.54 14.92Q89.38 12.68 88.24 11.22Q88 10.92 87.73 10.65Q87.28 10.21 86.75 9.9Q85.39 9.08 83.54 9.08Q81.85 9.08 80.54 9.79Q80.45 9.84 80.37 9.89Q79.84 10.2 79.4 10.62Q78.72 11.27 78.28 12.17ZM43.2 15.63L38.94 15.63L41.06 9.25L43.2 15.63ZM64.13 22L67.53 22L67.53 9.32L64.13 9.32L64.13 22ZM81.62 18.54Q80.94 17.59 80.94 15.78Q80.94 13.76 81.62 12.79Q81.92 12.36 82.33 12.12Q82.84 11.82 83.54 11.82Q84.24 11.82 84.76 12.13Q85.18 12.37 85.48 12.8Q86.17 13.77 86.17 15.54Q86.17 17.61 85.48 18.56Q85.18 18.97 84.77 19.2Q84.25 19.5 83.56 19.5Q82.81 19.5 82.27 19.17Q81.89 18.93 81.62 18.54ZM57.87 12.72Q58.48 13.6 58.48 15.53Q58.48 17.11 58.24 17.88Q57.97 18.73 57.39 19.13Q56.86 19.5 56.08 19.5Q55.13 19.5 54.52 19.04Q54.09 18.72 53.83 18.16L53.83 13.16Q54.08 12.61 54.5 12.29Q55.11 11.83 56.06 11.83Q56.82 11.83 57.35 12.19Q57.65 12.39 57.87 12.72Z" fill="#0A143A" fill-opacity="1.000000" fill-rule="evenodd"/>
</svg>
